<?xml version="1.0" standalone="no"?>
<!DOCTYPE svg PUBLIC "-//W3C//DTD SVG 20010904//EN"
 "http://www.w3.org/TR/2001/REC-SVG-20010904/DTD/svg10.dtd">
<svg version="1.0" xmlns="http://www.w3.org/2000/svg"
 width="512.000000pt" height="512.000000pt" viewBox="0 0 512.000000 512.000000"
 preserveAspectRatio="xMidYMid meet">

<g transform="translate(0.000000,512.000000) scale(0.100000,-0.100000)"
fill="#000000" stroke="none">
<path d="M520 4648 c-86 -44 -115 -148 -65 -234 30 -50 -37 -17 922 -455 392
-178 713 -327 713 -331 0 -5 -130 -8 -290 -8 -267 0 -293 -2 -344 -21 -73 -27
-148 -96 -183 -167 l-28 -57 0 -1345 0 -1345 26 -55 c36 -77 77 -121 151 -161
l63 -34 1075 0 1075 0 63 34 c74 40 115 84 151 161 l26 55 0 1345 0 1345 -28
56 c-30 63 -92 125 -159 161 -42 22 -51 23 -350 26 -170 2 -308 6 -308 10 0 4
346 164 768 356 422 192 786 359 809 372 77 44 105 149 60 229 -25 46 -92 85
-145 85 -38 0 -37 0 -607 -260 -220 -101 -521 -238 -669 -306 l-270 -123 -38
44 c-24 27 -66 57 -106 77 l-67 33 -205 0 -205 0 -67 -33 c-40 -20 -82 -50
-106 -77 l-38 -44 -745 341 c-524 240 -757 342 -789 345 -34 3 -56 -1 -90 -19z
m2170 -1148 l0 -300 -130 0 -130 0 0 300 0 300 130 0 130 0 0 -300z m-598
-294 c10 -147 83 -262 205 -319 45 -20 62 -22 263 -22 201 0 218 2 263 22 122
57 195 172 205 319 l5 84 253 0 254 0 0 -1260 0 -1260 -980 0 -980 0 0 1260 0
1260 254 0 253 0 5 -84z"/>
<path d="M2485 2679 c-243 -35 -426 -287 -386 -531 14 -82 55 -175 104 -233
l34 -39 -71 -18 c-171 -43 -316 -159 -393 -315 -113 -227 -70 -444 105 -530
l57 -28 625 0 625 0 57 28 c174 86 217 293 107 526 -31 66 -54 99 -116 160
-87 87 -164 130 -278 158 l-71 18 47 61 c76 101 112 241 90 359 -46 252 -281
421 -536 384z m134 -347 c37 -20 71 -73 71 -110 0 -69 -62 -132 -130 -132 -68
0 -130 63 -130 132 0 60 69 128 130 128 14 0 41 -8 59 -18z m306 -819 c69 -37
145 -133 145 -183 0 -7 -166 -10 -510 -10 -344 0 -510 3 -510 10 0 47 75 146
135 177 54 29 87 32 395 30 292 -2 307 -3 345 -24z"/>
</g>
</svg>
